<svg width="30" height="30" viewBox="0 0 30 30" fill="none" xmlns="http://www.w3.org/2000/svg">
<path fill-rule="evenodd" clip-rule="evenodd" d="M9.174 12.606L15 6.78L20.829 12.609L24.219 9.219L15 0L5.784 9.216L9.174 12.606ZM0 15L3.39 11.61L6.78 15L3.39 18.39L0 15ZM15 23.22L9.174 17.394L5.7795 20.7795L5.784 20.784L15 30L24.219 20.7795L20.829 17.391L15 23.22ZM23.22 15L26.61 11.61L30 15L26.61 18.39L23.22 15ZM18.441 14.997H18.438L15 11.559L12.4575 14.1L12.165 14.3925L11.5635 14.9955L11.5575 15L11.5635 15.006L15 18.441L18.441 15V14.997Z" fill="white"/>
</svg>
