<svg width="16" height="22" viewBox="0 0 16 22" fill="none" xmlns="http://www.w3.org/2000/svg">
<g clip-path="url(#clip0_14_2300)">
<path d="M0.209453 11.1416C0.469103 11.5332 0.947194 11.7171 1.40158 11.6035L4.45646 10.8409L4.45646 37.2624C4.45646 37.8747 4.95191 38.3701 5.56419 38.3701H9.99508C10.6074 38.3701 11.1028 37.8747 11.1028 37.2624L11.1028 10.8409L14.1577 11.6035C14.6099 11.7171 15.088 11.5332 15.3498 11.1416C15.6072 10.7511 15.5943 10.2394 15.313 9.86515L8.6667 1.00337C8.22213 0.41214 7.33662 0.412876 6.89264 1.00337L0.246303 9.86515C-0.035059 10.2394 -0.0479822 10.7511 0.209453 11.1416Z" fill="#31CBD1"/>
</g>
<defs>
<clipPath id="clip0_14_2300">
<rect width="15.5085" height="21.5396" fill="white" transform="translate(15.5339 22) rotate(-180)"/>
</clipPath>
</defs>
</svg>
