<svg width="20" height="30" viewBox="0 0 20 30" fill="none" xmlns="http://www.w3.org/2000/svg">
<g clip-path="url(#clip0_402_33431)">
<path d="M10.3109 0.163421C9.96296 0.394131 9.79957 0.818934 9.90049 1.22268L10.5781 3.93706L-12.8984 3.93706C-13.4425 3.93706 -13.8827 4.37728 -13.8827 4.92132L-13.8827 8.85834C-13.8827 9.40237 -13.4425 9.8426 -12.8984 9.8426L10.5781 9.8426L9.90049 12.557C9.79957 12.9588 9.96296 13.3836 10.3109 13.6162C10.6579 13.845 11.1126 13.8335 11.4451 13.5836L19.3192 7.67802C19.8445 7.28301 19.8438 6.49619 19.3192 6.1017L11.4451 0.196163C11.1126 -0.0538378 10.6579 -0.06532 10.3109 0.163421Z" fill="#5149F7"/>
</g>
<g clip-path="url(#clip1_402_33431)">
<path d="M9.49059 29.8366C9.83856 29.6059 10.0019 29.1811 9.90102 28.7773L9.2234 26.0629L32.6999 26.0629C33.244 26.0629 33.6842 25.6227 33.6842 25.0787V21.1417C33.6842 20.5976 33.244 20.1574 32.6999 20.1574L9.2234 20.1574L9.90102 17.443C10.0019 17.0412 9.83856 16.6164 9.49059 16.3838C9.1436 16.155 8.68895 16.1665 8.3564 16.4164L0.482346 22.322C-0.042984 22.717 -0.0423279 23.5038 0.482346 23.8983L8.3564 29.8038C8.68895 30.0538 9.1436 30.0653 9.49059 29.8366Z" fill="#31CBD1"/>
</g>
<defs>
<clipPath id="clip0_402_33431">
<rect width="13.7799" height="19.1388" fill="white" transform="translate(0.662781 13.7798) rotate(-90)"/>
</clipPath>
<clipPath id="clip1_402_33431">
<rect width="13.7799" height="19.1388" fill="white" transform="translate(19.1388 16.2202) rotate(90)"/>
</clipPath>
</defs>
</svg>
