<svg width="66" height="66" viewBox="0 0 66 66" fill="none" xmlns="http://www.w3.org/2000/svg">
<g clip-path="url(#clip0_49_1557)">
<path d="M59.4084 16.3329L34.0443 0.302414C33.4064 -0.100805 32.5934 -0.100805 31.9557 0.302414L6.59149 16.3329C5.85582 16.7978 5.51628 17.693 5.75811 18.5289C6.00006 19.3648 6.76551 19.94 7.63576 19.94H58.364C59.2342 19.94 59.9995 19.3648 60.2416 18.5289C60.4837 17.693 60.1439 16.7978 59.4084 16.3329Z" fill="#8CBCFF"/>
<path d="M55.0285 21.1084H48.2259C47.1463 21.1084 46.2711 21.9835 46.2711 23.0631V51.6926C46.2711 52.7722 47.1463 53.6473 48.2259 53.6473H55.0285C56.1081 53.6473 56.9832 52.7722 56.9832 51.6926V23.0631C56.9832 21.9835 56.1081 21.1084 55.0285 21.1084Z" fill="#8CBCFF"/>
<path d="M36.4012 21.1084H29.5985C28.5189 21.1084 27.6438 21.9835 27.6438 23.0631V51.6926C27.6438 52.7722 28.5189 53.6473 29.5985 53.6473H36.4012C37.4808 53.6473 38.3559 52.7722 38.3559 51.6926V23.0631C38.356 21.9835 37.4809 21.1084 36.4012 21.1084Z" fill="#8CBCFF"/>
<path d="M17.6404 21.1084H10.8378C9.7582 21.1084 8.88306 21.9835 8.88306 23.0631V51.6926C8.88306 52.7722 9.7582 53.6473 10.8378 53.6473H17.6404C18.72 53.6473 19.5952 52.7722 19.5952 51.6926V23.0631C19.5952 21.9835 18.7199 21.1084 17.6404 21.1084Z" fill="#8CBCFF"/>
<path d="M17.6403 21.1084H14.239V53.6483H17.6403C18.7194 53.6483 19.5951 52.7725 19.5951 51.6936V23.0631C19.5951 21.9841 18.7193 21.1084 17.6403 21.1084Z" fill="#6AA9FF"/>
<path d="M61.9888 16.0312H4.01114C2.0042 16.0312 0.371216 17.6641 0.371216 19.6712V23.4132C0.371216 25.4201 2.00407 27.0531 4.01114 27.0531H61.9889C63.9959 27.0531 65.629 25.4203 65.629 23.4132V19.6712C65.6288 17.664 63.9959 16.0312 61.9888 16.0312Z" fill="#2682FF"/>
<path d="M58.3641 47.8652H7.63576C6.55617 47.8652 5.68103 48.7404 5.68103 49.82V56.9324C5.68103 58.012 6.55617 58.8871 7.63576 58.8871H58.364C59.4436 58.8871 60.3187 58.012 60.3187 56.9324V49.82C60.3188 48.7404 59.4437 47.8652 58.3641 47.8652Z" fill="#2682FF"/>
<path d="M63.6741 54.9775H2.32583C1.24624 54.9775 0.371094 55.8527 0.371094 56.9323V64.0447C0.371094 65.1243 1.24624 65.9994 2.32583 65.9994H63.674C64.7536 65.9994 65.6287 65.1243 65.6287 64.0447V56.9323C65.6289 55.8527 64.7536 54.9775 63.6741 54.9775Z" fill="#0051BF"/>
<path d="M60.2414 18.5296C60.0003 19.3649 59.234 19.9409 58.3635 19.9409H33V0C33.3622 0 33.7246 0.100289 34.0439 0.302285L58.9304 16.0314L59.4086 16.3337C60.1435 16.7978 60.4837 17.693 60.2414 18.5296Z" fill="#6AA9FF"/>
<path d="M55.0286 21.1084H51.6274V53.6483H55.0286C56.1077 53.6483 56.9834 52.7725 56.9834 51.6936V23.0631C56.9834 21.9841 56.1077 21.1084 55.0286 21.1084Z" fill="#6AA9FF"/>
<path d="M36.4012 21.1084H33V53.6483H36.4013C37.4804 53.6483 38.3561 52.7725 38.3561 51.6936V23.0631C38.3561 21.9841 37.4803 21.1084 36.4012 21.1084Z" fill="#6AA9FF"/>
<path d="M65.6286 19.6709V23.4123C65.6286 25.4191 63.9958 27.0521 61.9888 27.0521H33V16.0312H61.9888C63.9958 16.0313 65.6286 17.6641 65.6286 19.6709Z" fill="#046EFF"/>
<path d="M60.3182 49.82V56.9326C60.3182 58.0117 59.4438 58.8874 58.3635 58.8874H33V47.8652H58.3635C59.4438 47.8652 60.3182 48.7409 60.3182 49.82Z" fill="#046EFF"/>
<path d="M65.6286 56.9323V64.0449C65.6286 65.124 64.7542 65.9997 63.6739 65.9997H33V54.9775H63.6739C64.7541 54.9775 65.6286 55.8519 65.6286 56.9323Z" fill="#00347B"/>
</g>
<defs>
<clipPath id="clip0_49_1557">
<rect width="66" height="66" fill="white"/>
</clipPath>
</defs>
</svg>
