<svg width="24" height="24" viewBox="0 0 24 24" fill="none" xmlns="http://www.w3.org/2000/svg">
<path d="M23.6408 14.9031C22.0379 21.3317 15.5261 25.2441 9.09602 23.641C2.66858 22.0382 -1.24421 15.5267 0.359461 9.09847C1.96163 2.6691 8.47345 -1.24365 14.9016 0.359098C21.3313 1.96185 25.2437 8.4741 23.6408 14.9031Z" fill="#F7931A"/>
<path fill-rule="evenodd" clip-rule="evenodd" d="M17.2896 10.2908C17.5285 8.69402 16.3127 7.83564 14.6504 7.26302L15.1896 5.10002L13.873 4.77189L13.348 6.87789C13.0019 6.79164 12.6464 6.71027 12.2931 6.62964L12.8219 4.50977L11.506 4.18164L10.9664 6.34389C10.6799 6.27864 10.3986 6.21414 10.1256 6.14627L10.1271 6.13952L8.31136 5.68614L7.96111 7.09239C7.96111 7.09239 8.93798 7.31627 8.91736 7.33014C9.45061 7.46327 9.54698 7.81614 9.53086 8.09589L8.91661 10.56C8.95336 10.5694 9.00098 10.5829 9.05348 10.6039L9.00891 10.5928C8.97836 10.5851 8.94669 10.5772 8.91436 10.5694L8.05336 14.0213C7.98811 14.1833 7.82273 14.4263 7.44998 14.334C7.46311 14.3531 6.49298 14.0951 6.49298 14.0951L5.83936 15.6023L7.55273 16.0294C7.74401 16.0773 7.933 16.1266 8.12001 16.1754L8.12017 16.1754C8.24474 16.2079 8.36844 16.2402 8.49136 16.2716L7.94648 18.4594L9.26161 18.7875L9.80123 16.623C10.1605 16.7205 10.5092 16.8105 10.8505 16.8953L10.3127 19.0496L11.6294 19.3778L12.1742 17.1941C14.4194 17.619 16.1076 17.4476 16.8182 15.417C17.3909 13.782 16.7897 12.8389 15.6085 12.2239C16.4687 12.0255 17.1167 11.4596 17.2896 10.2908ZM14.2814 14.5091C13.9081 16.0092 11.5601 15.389 10.4858 15.1053C10.3891 15.0797 10.3028 15.0569 10.2291 15.0386L10.9521 12.1403C11.0418 12.1626 11.1513 12.1872 11.2755 12.2151L11.2756 12.2151C12.3867 12.4644 14.6639 12.9754 14.2814 14.5091ZM11.4988 10.8701C12.3945 11.1091 14.3483 11.6305 14.6886 10.2671C15.0361 8.87263 13.1372 8.45226 12.2099 8.24696C12.1055 8.22387 12.0135 8.2035 11.9384 8.18477L11.2829 10.8135C11.3448 10.8289 11.4174 10.8483 11.4988 10.8701Z" fill="white"/>
</svg>
