<svg width="23" height="23" viewBox="0 0 23 23" fill="none" xmlns="http://www.w3.org/2000/svg">
<path fill-rule="evenodd" clip-rule="evenodd" d="M0.666667 8.00525C0.298667 8.00525 0 7.70658 0 7.33858V4.67192C0 2.09858 2.09333 0.00524902 4.66667 0.00524902H7.33333C7.70133 0.00524902 8 0.303916 8 0.671916C8 1.03992 7.70133 1.33858 7.33333 1.33858H4.66667C2.82933 1.33858 1.33333 2.83325 1.33333 4.67192V7.33858C1.33333 7.70658 1.03467 8.00525 0.666667 8.00525M22 8.00525C21.632 8.00525 21.3333 7.70658 21.3333 7.33858V4.67192C21.3333 2.83325 19.8373 1.33858 18 1.33858H15.3333C14.9653 1.33858 14.6667 1.03992 14.6667 0.671916C14.6667 0.303916 14.9653 0.00524902 15.3333 0.00524902H18C20.5733 0.00524902 22.6667 2.09858 22.6667 4.67192V7.33858C22.6667 7.70658 22.368 8.00525 22 8.00525ZM7.33333 10.6719C6.96533 10.6719 6.66667 10.3732 6.66667 10.0052V7.33858C6.66667 6.97058 6.96533 6.67192 7.33333 6.67192C7.70133 6.67192 8 6.97058 8 7.33858V10.0052C8 10.3732 7.70133 10.6719 7.33333 10.6719ZM15.3333 10.6719C14.9653 10.6719 14.6667 10.3732 14.6667 10.0052V7.33858C14.6667 6.97058 14.9653 6.67192 15.3333 6.67192C15.7013 6.67192 16 6.97058 16 7.33858V10.0052C16 10.3732 15.7013 10.6719 15.3333 10.6719ZM10 13.3386C9.632 13.3386 9.33333 13.0399 9.33333 12.6719C9.33333 12.3039 9.632 12.0053 10 12.0053C10.368 12.0053 10.6667 11.7053 10.6667 11.3386V7.33858C10.6667 6.97058 10.9653 6.67192 11.3333 6.67192C11.7013 6.67192 12 6.97058 12 7.33858V11.3386C12 12.4413 11.1027 13.3386 10 13.3386ZM11.3333 17.3386C9.824 17.3386 8.544 16.8239 7.528 15.8106C7.268 15.5493 7.268 15.1279 7.528 14.8666C7.78933 14.6066 8.21067 14.6066 8.472 14.8666C9.23733 15.6333 10.1733 16.0053 11.3333 16.0053C12.4933 16.0053 13.4293 15.6333 14.1947 14.8666C14.456 14.6066 14.8773 14.6066 15.1387 14.8666C15.3987 15.1279 15.3987 15.5493 15.1387 15.8106C14.1227 16.8239 12.8427 17.3386 11.3333 17.3386ZM7.33333 22.6719H4.66667C2.09333 22.6719 0 20.5786 0 18.0053V15.3386C0 14.9706 0.298667 14.6719 0.666667 14.6719C1.03467 14.6719 1.33333 14.9706 1.33333 15.3386V18.0053C1.33333 19.8439 2.82933 21.3386 4.66667 21.3386H7.33333C7.70133 21.3386 8 21.6373 8 22.0053C8 22.3733 7.70133 22.6719 7.33333 22.6719ZM18 22.6719H15.3333C14.9653 22.6719 14.6667 22.3733 14.6667 22.0053C14.6667 21.6373 14.9653 21.3386 15.3333 21.3386H18C19.8373 21.3386 21.3333 19.8439 21.3333 18.0053V15.3386C21.3333 14.9706 21.632 14.6719 22 14.6719C22.368 14.6719 22.6667 14.9706 22.6667 15.3386V18.0053C22.6667 20.5786 20.5733 22.6719 18 22.6719Z" fill="black"/>
</svg>
