<svg width="162" height="162" viewBox="0 0 162 162" fill="none" xmlns="http://www.w3.org/2000/svg">
<path d="M0.444336 0.444336H6.88878V6.88878H0.444336V0.444336ZM6.88878 0.444336H13.3332V6.88878H6.88878V0.444336ZM13.3332 0.444336H19.7777V6.88878H13.3332V0.444336ZM19.7777 0.444336H26.2221V6.88878H19.7777V0.444336ZM26.2221 0.444336H32.6666V6.88878H26.2221V0.444336ZM32.6666 0.444336H39.111V6.88878H32.6666V0.444336ZM39.111 0.444336H45.5555V6.88878H39.111V0.444336ZM64.8888 0.444336H71.3332V6.88878H64.8888V0.444336ZM90.6666 0.444336H97.111V6.88878H90.6666V0.444336ZM97.111 0.444336H103.555V6.88878H97.111V0.444336ZM103.555 0.444336H110V6.88878H103.555V0.444336ZM116.444 0.444336H122.889V6.88878H116.444V0.444336ZM122.889 0.444336H129.333V6.88878H122.889V0.444336ZM129.333 0.444336H135.778V6.88878H129.333V0.444336ZM135.778 0.444336H142.222V6.88878H135.778V0.444336ZM142.222 0.444336H148.667V6.88878H142.222V0.444336ZM148.667 0.444336H155.111V6.88878H148.667V0.444336ZM155.111 0.444336H161.555V6.88878H155.111V0.444336ZM0.444336 6.88878H6.88878V13.3332H0.444336V6.88878ZM39.111 6.88878H45.5555V13.3332H39.111V6.88878ZM51.9999 6.88878H58.4443V13.3332H51.9999V6.88878ZM77.7777 6.88878H84.2221V13.3332H77.7777V6.88878ZM84.2221 6.88878H90.6666V13.3332H84.2221V6.88878ZM90.6666 6.88878H97.111V13.3332H90.6666V6.88878ZM97.111 6.88878H103.555V13.3332H97.111V6.88878ZM103.555 6.88878H110V13.3332H103.555V6.88878ZM116.444 6.88878H122.889V13.3332H116.444V6.88878ZM155.111 6.88878H161.555V13.3332H155.111V6.88878ZM0.444336 13.3332H6.88878V19.7777H0.444336V13.3332ZM13.3332 13.3332H19.7777V19.7777H13.3332V13.3332ZM19.7777 13.3332H26.2221V19.7777H19.7777V13.3332ZM26.2221 13.3332H32.6666V19.7777H26.2221V13.3332ZM39.111 13.3332H45.5555V19.7777H39.111V13.3332ZM58.4443 13.3332H64.8888V19.7777H58.4443V13.3332ZM103.555 13.3332H110V19.7777H103.555V13.3332ZM116.444 13.3332H122.889V19.7777H116.444V13.3332ZM129.333 13.3332H135.778V19.7777H129.333V13.3332ZM135.778 13.3332H142.222V19.7777H135.778V13.3332ZM142.222 13.3332H148.667V19.7777H142.222V13.3332ZM155.111 13.3332H161.555V19.7777H155.111V13.3332ZM0.444336 19.7777H6.88878V26.2221H0.444336V19.7777ZM13.3332 19.7777H19.7777V26.2221H13.3332V19.7777ZM19.7777 19.7777H26.2221V26.2221H19.7777V19.7777ZM26.2221 19.7777H32.6666V26.2221H26.2221V19.7777ZM39.111 19.7777H45.5555V26.2221H39.111V19.7777ZM51.9999 19.7777H58.4443V26.2221H51.9999V19.7777ZM64.8888 19.7777H71.3332V26.2221H64.8888V19.7777ZM84.2221 19.7777H90.6666V26.2221H84.2221V19.7777ZM97.111 19.7777H103.555V26.2221H97.111V19.7777ZM103.555 19.7777H110V26.2221H103.555V19.7777ZM116.444 19.7777H122.889V26.2221H116.444V19.7777ZM129.333 19.7777H135.778V26.2221H129.333V19.7777ZM135.778 19.7777H142.222V26.2221H135.778V19.7777ZM142.222 19.7777H148.667V26.2221H142.222V19.7777ZM155.111 19.7777H161.555V26.2221H155.111V19.7777ZM0.444336 26.2221H6.88878V32.6666H0.444336V26.2221ZM13.3332 26.2221H19.7777V32.6666H13.3332V26.2221ZM19.7777 26.2221H26.2221V32.6666H19.7777V26.2221ZM26.2221 26.2221H32.6666V32.6666H26.2221V26.2221ZM39.111 26.2221H45.5555V32.6666H39.111V26.2221ZM58.4443 26.2221H64.8888V32.6666H58.4443V26.2221ZM71.3332 26.2221H77.7777V32.6666H71.3332V26.2221ZM84.2221 26.2221H90.6666V32.6666H84.2221V26.2221ZM90.6666 26.2221H97.111V32.6666H90.6666V26.2221ZM103.555 26.2221H110V32.6666H103.555V26.2221ZM116.444 26.2221H122.889V32.6666H116.444V26.2221ZM129.333 26.2221H135.778V32.6666H129.333V26.2221ZM135.778 26.2221H142.222V32.6666H135.778V26.2221ZM142.222 26.2221H148.667V32.6666H142.222V26.2221ZM155.111 26.2221H161.555V32.6666H155.111V26.2221ZM0.444336 32.6666H6.88878V39.111H0.444336V32.6666ZM39.111 32.6666H45.5555V39.111H39.111V32.6666ZM51.9999 32.6666H58.4443V39.111H51.9999V32.6666ZM97.111 32.6666H103.555V39.111H97.111V32.6666ZM116.444 32.6666H122.889V39.111H116.444V32.6666ZM155.111 32.6666H161.555V39.111H155.111V32.6666ZM0.444336 39.111H6.88878V45.5555H0.444336V39.111ZM6.88878 39.111H13.3332V45.5555H6.88878V39.111ZM13.3332 39.111H19.7777V45.5555H13.3332V39.111ZM19.7777 39.111H26.2221V45.5555H19.7777V39.111ZM26.2221 39.111H32.6666V45.5555H26.2221V39.111ZM32.6666 39.111H39.111V45.5555H32.6666V39.111ZM39.111 39.111H45.5555V45.5555H39.111V39.111ZM51.9999 39.111H58.4443V45.5555H51.9999V39.111ZM64.8888 39.111H71.3332V45.5555H64.8888V39.111ZM77.7777 39.111H84.2221V45.5555H77.7777V39.111ZM90.6666 39.111H97.111V45.5555H90.6666V39.111ZM103.555 39.111H110V45.5555H103.555V39.111ZM116.444 39.111H122.889V45.5555H116.444V39.111ZM122.889 39.111H129.333V45.5555H122.889V39.111ZM129.333 39.111H135.778V45.5555H129.333V39.111ZM135.778 39.111H142.222V45.5555H135.778V39.111ZM142.222 39.111H148.667V45.5555H142.222V39.111ZM148.667 39.111H155.111V45.5555H148.667V39.111ZM155.111 39.111H161.555V45.5555H155.111V39.111ZM58.4443 45.5555H64.8888V51.9999H58.4443V45.5555ZM64.8888 45.5555H71.3332V51.9999H64.8888V45.5555ZM71.3332 45.5555H77.7777V51.9999H71.3332V45.5555ZM77.7777 45.5555H84.2221V51.9999H77.7777V45.5555ZM97.111 45.5555H103.555V51.9999H97.111V45.5555ZM103.555 45.5555H110V51.9999H103.555V45.5555ZM0.444336 51.9999H6.88878V58.4443H0.444336V51.9999ZM6.88878 51.9999H13.3332V58.4443H6.88878V51.9999ZM13.3332 51.9999H19.7777V58.4443H13.3332V51.9999ZM19.7777 51.9999H26.2221V58.4443H19.7777V51.9999ZM26.2221 51.9999H32.6666V58.4443H26.2221V51.9999ZM39.111 51.9999H45.5555V58.4443H39.111V51.9999ZM45.5555 51.9999H51.9999V58.4443H45.5555V51.9999ZM51.9999 51.9999H58.4443V58.4443H51.9999V51.9999ZM71.3332 51.9999H77.7777V58.4443H71.3332V51.9999ZM77.7777 51.9999H84.2221V58.4443H77.7777V51.9999ZM84.2221 51.9999H90.6666V58.4443H84.2221V51.9999ZM90.6666 51.9999H97.111V58.4443H90.6666V51.9999ZM97.111 51.9999H103.555V58.4443H97.111V51.9999ZM110 51.9999H116.444V58.4443H110V51.9999ZM122.889 51.9999H129.333V58.4443H122.889V51.9999ZM135.778 51.9999H142.222V58.4443H135.778V51.9999ZM148.667 51.9999H155.111V58.4443H148.667V51.9999ZM0.444336 58.4443H6.88878V64.8888H0.444336V58.4443ZM6.88878 58.4443H13.3332V64.8888H6.88878V58.4443ZM19.7777 58.4443H26.2221V64.8888H19.7777V58.4443ZM26.2221 58.4443H32.6666V64.8888H26.2221V58.4443ZM32.6666 58.4443H39.111V64.8888H32.6666V58.4443ZM45.5555 58.4443H51.9999V64.8888H45.5555V58.4443ZM51.9999 58.4443H58.4443V64.8888H51.9999V58.4443ZM58.4443 58.4443H64.8888V64.8888H58.4443V58.4443ZM64.8888 58.4443H71.3332V64.8888H64.8888V58.4443ZM71.3332 58.4443H77.7777V64.8888H71.3332V58.4443ZM103.555 58.4443H110V64.8888H103.555V58.4443ZM110 58.4443H116.444V64.8888H110V58.4443ZM122.889 58.4443H129.333V64.8888H122.889V58.4443ZM135.778 58.4443H142.222V64.8888H135.778V58.4443ZM142.222 58.4443H148.667V64.8888H142.222V58.4443ZM148.667 58.4443H155.111V64.8888H148.667V58.4443ZM155.111 58.4443H161.555V64.8888H155.111V58.4443ZM0.444336 64.8888H6.88878V71.3332H0.444336V64.8888ZM32.6666 64.8888H39.111V71.3332H32.6666V64.8888ZM39.111 64.8888H45.5555V71.3332H39.111V64.8888ZM45.5555 64.8888H51.9999V71.3332H45.5555V64.8888ZM58.4443 64.8888H64.8888V71.3332H58.4443V64.8888ZM64.8888 64.8888H71.3332V71.3332H64.8888V64.8888ZM77.7777 64.8888H84.2221V71.3332H77.7777V64.8888ZM90.6666 64.8888H97.111V71.3332H90.6666V64.8888ZM97.111 64.8888H103.555V71.3332H97.111V64.8888ZM116.444 64.8888H122.889V71.3332H116.444V64.8888ZM122.889 64.8888H129.333V71.3332H122.889V64.8888ZM129.333 64.8888H135.778V71.3332H129.333V64.8888ZM135.778 64.8888H142.222V71.3332H135.778V64.8888ZM142.222 64.8888H148.667V71.3332H142.222V64.8888ZM148.667 64.8888H155.111V71.3332H148.667V64.8888ZM155.111 64.8888H161.555V71.3332H155.111V64.8888ZM6.88878 71.3332H13.3332V77.7777H6.88878V71.3332ZM32.6666 71.3332H39.111V77.7777H32.6666V71.3332ZM45.5555 71.3332H51.9999V77.7777H45.5555V71.3332ZM51.9999 71.3332H58.4443V77.7777H51.9999V71.3332ZM58.4443 71.3332H64.8888V77.7777H58.4443V71.3332ZM64.8888 71.3332H71.3332V77.7777H64.8888V71.3332ZM90.6666 71.3332H97.111V77.7777H90.6666V71.3332ZM116.444 71.3332H122.889V77.7777H116.444V71.3332ZM0.444336 77.7777H6.88878V84.2221H0.444336V77.7777ZM13.3332 77.7777H19.7777V84.2221H13.3332V77.7777ZM39.111 77.7777H45.5555V84.2221H39.111V77.7777ZM51.9999 77.7777H58.4443V84.2221H51.9999V77.7777ZM58.4443 77.7777H64.8888V84.2221H58.4443V77.7777ZM84.2221 77.7777H90.6666V84.2221H84.2221V77.7777ZM90.6666 77.7777H97.111V84.2221H90.6666V77.7777ZM110 77.7777H116.444V84.2221H110V77.7777ZM116.444 77.7777H122.889V84.2221H116.444V77.7777ZM129.333 77.7777H135.778V84.2221H129.333V77.7777ZM135.778 77.7777H142.222V84.2221H135.778V77.7777ZM142.222 77.7777H148.667V84.2221H142.222V77.7777ZM148.667 77.7777H155.111V84.2221H148.667V77.7777ZM155.111 77.7777H161.555V84.2221H155.111V77.7777ZM0.444336 84.2221H6.88878V90.6666H0.444336V84.2221ZM19.7777 84.2221H26.2221V90.6666H19.7777V84.2221ZM45.5555 84.2221H51.9999V90.6666H45.5555V84.2221ZM51.9999 84.2221H58.4443V90.6666H51.9999V84.2221ZM71.3332 84.2221H77.7777V90.6666H71.3332V84.2221ZM84.2221 84.2221H90.6666V90.6666H84.2221V84.2221ZM90.6666 84.2221H97.111V90.6666H90.6666V84.2221ZM103.555 84.2221H110V90.6666H103.555V84.2221ZM122.889 84.2221H129.333V90.6666H122.889V84.2221ZM135.778 84.2221H142.222V90.6666H135.778V84.2221ZM155.111 84.2221H161.555V90.6666H155.111V84.2221ZM0.444336 90.6666H6.88878V97.111H0.444336V90.6666ZM13.3332 90.6666H19.7777V97.111H13.3332V90.6666ZM26.2221 90.6666H32.6666V97.111H26.2221V90.6666ZM39.111 90.6666H45.5555V97.111H39.111V90.6666ZM51.9999 90.6666H58.4443V97.111H51.9999V90.6666ZM58.4443 90.6666H64.8888V97.111H58.4443V90.6666ZM64.8888 90.6666H71.3332V97.111H64.8888V90.6666ZM77.7777 90.6666H84.2221V97.111H77.7777V90.6666ZM97.111 90.6666H103.555V97.111H97.111V90.6666ZM103.555 90.6666H110V97.111H103.555V90.6666ZM122.889 90.6666H129.333V97.111H122.889V90.6666ZM135.778 90.6666H142.222V97.111H135.778V90.6666ZM142.222 90.6666H148.667V97.111H142.222V90.6666ZM148.667 90.6666H155.111V97.111H148.667V90.6666ZM155.111 90.6666H161.555V97.111H155.111V90.6666ZM0.444336 97.111H6.88878V103.555H0.444336V97.111ZM13.3332 97.111H19.7777V103.555H13.3332V97.111ZM19.7777 97.111H26.2221V103.555H19.7777V97.111ZM26.2221 97.111H32.6666V103.555H26.2221V97.111ZM32.6666 97.111H39.111V103.555H32.6666V97.111ZM51.9999 97.111H58.4443V103.555H51.9999V97.111ZM58.4443 97.111H64.8888V103.555H58.4443V97.111ZM90.6666 97.111H97.111V103.555H90.6666V97.111ZM103.555 97.111H110V103.555H103.555V97.111ZM129.333 97.111H135.778V103.555H129.333V97.111ZM148.667 97.111H155.111V103.555H148.667V97.111ZM0.444336 103.555H6.88878V110H0.444336V103.555ZM13.3332 103.555H19.7777V110H13.3332V103.555ZM26.2221 103.555H32.6666V110H26.2221V103.555ZM32.6666 103.555H39.111V110H32.6666V103.555ZM39.111 103.555H45.5555V110H39.111V103.555ZM45.5555 103.555H51.9999V110H45.5555V103.555ZM58.4443 103.555H64.8888V110H58.4443V103.555ZM64.8888 103.555H71.3332V110H64.8888V103.555ZM71.3332 103.555H77.7777V110H71.3332V103.555ZM77.7777 103.555H84.2221V110H77.7777V103.555ZM90.6666 103.555H97.111V110H90.6666V103.555ZM97.111 103.555H103.555V110H97.111V103.555ZM103.555 103.555H110V110H103.555V103.555ZM110 103.555H116.444V110H110V103.555ZM116.444 103.555H122.889V110H116.444V103.555ZM122.889 103.555H129.333V110H122.889V103.555ZM129.333 103.555H135.778V110H129.333V103.555ZM135.778 103.555H142.222V110H135.778V103.555ZM142.222 103.555H148.667V110H142.222V103.555ZM155.111 103.555H161.555V110H155.111V103.555ZM51.9999 110H58.4443V116.444H51.9999V110ZM64.8888 110H71.3332V116.444H64.8888V110ZM84.2221 110H90.6666V116.444H84.2221V110ZM97.111 110H103.555V116.444H97.111V110ZM103.555 110H110V116.444H103.555V110ZM129.333 110H135.778V116.444H129.333V110ZM148.667 110H155.111V116.444H148.667V110ZM0.444336 116.444H6.88878V122.889H0.444336V116.444ZM6.88878 116.444H13.3332V122.889H6.88878V116.444ZM13.3332 116.444H19.7777V122.889H13.3332V116.444ZM19.7777 116.444H26.2221V122.889H19.7777V116.444ZM26.2221 116.444H32.6666V122.889H26.2221V116.444ZM32.6666 116.444H39.111V122.889H32.6666V116.444ZM39.111 116.444H45.5555V122.889H39.111V116.444ZM51.9999 116.444H58.4443V122.889H51.9999V116.444ZM84.2221 116.444H90.6666V122.889H84.2221V116.444ZM97.111 116.444H103.555V122.889H97.111V116.444ZM103.555 116.444H110V122.889H103.555V116.444ZM116.444 116.444H122.889V122.889H116.444V116.444ZM129.333 116.444H135.778V122.889H129.333V116.444ZM142.222 116.444H148.667V122.889H142.222V116.444ZM155.111 116.444H161.555V122.889H155.111V116.444ZM0.444336 122.889H6.88878V129.333H0.444336V122.889ZM39.111 122.889H45.5555V129.333H39.111V122.889ZM71.3332 122.889H77.7777V129.333H71.3332V122.889ZM77.7777 122.889H84.2221V129.333H77.7777V122.889ZM103.555 122.889H110V129.333H103.555V122.889ZM129.333 122.889H135.778V129.333H129.333V122.889ZM155.111 122.889H161.555V129.333H155.111V122.889ZM0.444336 129.333H6.88878V135.778H0.444336V129.333ZM13.3332 129.333H19.7777V135.778H13.3332V129.333ZM19.7777 129.333H26.2221V135.778H19.7777V129.333ZM26.2221 129.333H32.6666V135.778H26.2221V129.333ZM39.111 129.333H45.5555V135.778H39.111V129.333ZM51.9999 129.333H58.4443V135.778H51.9999V129.333ZM58.4443 129.333H64.8888V135.778H58.4443V129.333ZM71.3332 129.333H77.7777V135.778H71.3332V129.333ZM77.7777 129.333H84.2221V135.778H77.7777V129.333ZM90.6666 129.333H97.111V135.778H90.6666V129.333ZM97.111 129.333H103.555V135.778H97.111V129.333ZM103.555 129.333H110V135.778H103.555V129.333ZM110 129.333H116.444V135.778H110V129.333ZM116.444 129.333H122.889V135.778H116.444V129.333ZM122.889 129.333H129.333V135.778H122.889V129.333ZM129.333 129.333H135.778V135.778H129.333V129.333ZM135.778 129.333H142.222V135.778H135.778V129.333ZM142.222 129.333H148.667V135.778H142.222V129.333ZM155.111 129.333H161.555V135.778H155.111V129.333ZM0.444336 135.778H6.88878V142.222H0.444336V135.778ZM13.3332 135.778H19.7777V142.222H13.3332V135.778ZM19.7777 135.778H26.2221V142.222H19.7777V135.778ZM26.2221 135.778H32.6666V142.222H26.2221V135.778ZM39.111 135.778H45.5555V142.222H39.111V135.778ZM51.9999 135.778H58.4443V142.222H51.9999V135.778ZM58.4443 135.778H64.8888V142.222H58.4443V135.778ZM64.8888 135.778H71.3332V142.222H64.8888V135.778ZM71.3332 135.778H77.7777V142.222H71.3332V135.778ZM84.2221 135.778H90.6666V142.222H84.2221V135.778ZM97.111 135.778H103.555V142.222H97.111V135.778ZM103.555 135.778H110V142.222H103.555V135.778ZM110 135.778H116.444V142.222H110V135.778ZM116.444 135.778H122.889V142.222H116.444V135.778ZM122.889 135.778H129.333V142.222H122.889V135.778ZM129.333 135.778H135.778V142.222H129.333V135.778ZM135.778 135.778H142.222V142.222H135.778V135.778ZM142.222 135.778H148.667V142.222H142.222V135.778ZM0.444336 142.222H6.88878V148.667H0.444336V142.222ZM13.3332 142.222H19.7777V148.667H13.3332V142.222ZM19.7777 142.222H26.2221V148.667H19.7777V142.222ZM26.2221 142.222H32.6666V148.667H26.2221V142.222ZM39.111 142.222H45.5555V148.667H39.111V142.222ZM51.9999 142.222H58.4443V148.667H51.9999V142.222ZM58.4443 142.222H64.8888V148.667H58.4443V142.222ZM77.7777 142.222H84.2221V148.667H77.7777V142.222ZM84.2221 142.222H90.6666V148.667H84.2221V142.222ZM97.111 142.222H103.555V148.667H97.111V142.222ZM110 142.222H116.444V148.667H110V142.222ZM155.111 142.222H161.555V148.667H155.111V142.222ZM0.444336 148.667H6.88878V155.111H0.444336V148.667ZM39.111 148.667H45.5555V155.111H39.111V148.667ZM51.9999 148.667H58.4443V155.111H51.9999V148.667ZM71.3332 148.667H77.7777V155.111H71.3332V148.667ZM103.555 148.667H110V155.111H103.555V148.667ZM116.444 148.667H122.889V155.111H116.444V148.667ZM129.333 148.667H135.778V155.111H129.333V148.667ZM135.778 148.667H142.222V155.111H135.778V148.667ZM155.111 148.667H161.555V155.111H155.111V148.667ZM0.444336 155.111H6.88878V161.555H0.444336V155.111ZM6.88878 155.111H13.3332V161.555H6.88878V155.111ZM13.3332 155.111H19.7777V161.555H13.3332V155.111ZM19.7777 155.111H26.2221V161.555H19.7777V155.111ZM26.2221 155.111H32.6666V161.555H26.2221V155.111ZM32.6666 155.111H39.111V161.555H32.6666V155.111ZM39.111 155.111H45.5555V161.555H39.111V155.111ZM51.9999 155.111H58.4443V161.555H51.9999V155.111ZM58.4443 155.111H64.8888V161.555H58.4443V155.111ZM71.3332 155.111H77.7777V161.555H71.3332V155.111ZM77.7777 155.111H84.2221V161.555H77.7777V155.111ZM84.2221 155.111H90.6666V161.555H84.2221V155.111ZM90.6666 155.111H97.111V161.555H90.6666V155.111ZM97.111 155.111H103.555V161.555H97.111V155.111ZM110 155.111H116.444V161.555H110V155.111ZM116.444 155.111H122.889V161.555H116.444V155.111ZM142.222 155.111H148.667V161.555H142.222V155.111ZM148.667 155.111H155.111V161.555H148.667V155.111ZM155.111 155.111H161.555V161.555H155.111V155.111Z" fill="black"/>
</svg>
