<svg width="26" height="26" viewBox="0 0 26 26" fill="none" xmlns="http://www.w3.org/2000/svg">
<path fill-rule="evenodd" clip-rule="evenodd" d="M1.62399 5.68457C1.62399 7.03046 19.8698 21.1159 20.3184 21.1159H21.1312C21.994 21.1159 22.8203 20.774 23.4305 20.1645C24.0399 19.555 24.3827 18.7289 24.3827 17.8672C24.3827 14.8003 24.3827 9.56367 24.3827 6.49675C24.3827 4.70223 22.9268 3.24805 21.1312 3.24805C16.7711 3.24805 7.75139 3.24805 4.06258 3.24805C2.71625 3.24805 1.62399 4.33868 1.62399 5.68457C1.62399 6.1332 1.62399 5.68457 1.62399 5.68457Z" fill="url(#paint0_linear_14_2315)"/>
<path fill-rule="evenodd" clip-rule="evenodd" d="M19.5048 4.0625C19.5048 2.71619 18.4136 1.625 17.0669 1.625C14.7438 1.625 10.4514 1.625 8.12733 1.625C6.78169 1.625 5.68945 2.71619 5.68945 4.0625V7.3125C5.68945 7.761 6.05353 8.125 6.50242 8.125H18.6928C19.1417 8.125 19.5048 7.761 19.5048 7.3125V4.0625Z" fill="url(#paint1_linear_14_2315)"/>
<path fill-rule="evenodd" clip-rule="evenodd" d="M1.62546 5.68571V21.117C1.62546 22.9116 3.08131 24.3657 4.87691 24.3657H19.507C21.3026 24.3657 22.7584 22.9116 22.7584 21.117C22.7584 18.0501 22.7584 12.8135 22.7584 9.74658C22.7584 7.95206 21.3026 6.49788 19.507 6.49788H4.06405C3.61477 6.49788 3.25118 6.13434 3.25118 5.68571C3.25118 5.24636 2.88685 4.87354 2.43832 4.87354C1.98979 4.87354 1.62546 5.23708 1.62546 5.68571Z" fill="url(#paint2_linear_14_2315)"/>
<path fill-rule="evenodd" clip-rule="evenodd" d="M17.8748 20.3125C18.5218 20.3125 19.1417 20.0551 19.5981 19.5988C20.056 19.1412 20.3119 18.5211 20.3119 17.875C20.3119 16.8467 20.3119 15.6533 20.3119 14.625C20.3119 13.9789 20.056 13.3588 19.5981 12.9012C19.1417 12.4449 18.5218 12.1875 17.8748 12.1875H14.6244C13.548 12.1875 12.5143 12.6152 11.7522 13.377C10.9901 14.1388 10.5621 15.1723 10.5621 16.25C10.5621 18.4938 12.3807 20.3125 14.6244 20.3125H17.8748Z" fill="black" fill-opacity="0.1"/>
<path fill-rule="evenodd" clip-rule="evenodd" d="M18.6873 19.5C19.3343 19.5 19.9542 19.2426 20.4106 18.7863C20.8685 18.3287 21.1244 17.7086 21.1244 17.0625C21.1244 16.0342 21.1244 14.8408 21.1244 13.8125C21.1244 13.1664 20.8685 12.5463 20.4106 12.0887C19.9542 11.6324 19.3343 11.375 18.6873 11.375H15.4369C14.3605 11.375 13.3268 11.8027 12.5647 12.5645C11.8026 13.3263 11.3746 14.3598 11.3746 15.4375C11.3746 17.6813 13.1932 19.5 15.4369 19.5H18.6873Z" fill="url(#paint3_linear_14_2315)"/>
<path fill-rule="evenodd" clip-rule="evenodd" d="M16.1655 16.2359C16.1655 16.6668 15.9944 17.08 15.6897 17.3847C15.385 17.6894 14.9718 17.8605 14.5409 17.8605C14.11 17.8605 13.6968 17.6894 13.3921 17.3847C13.0875 17.08 12.9163 16.6668 12.9163 16.2359C12.9163 15.8051 13.0875 15.3918 13.3921 15.0872C13.6968 14.7825 14.11 14.6113 14.5409 14.6113C14.9718 14.6113 15.385 14.7825 15.6897 15.0872C15.9944 15.3918 16.1655 15.8051 16.1655 16.2359Z" fill="black" fill-opacity="0.1"/>
<path fill-rule="evenodd" clip-rule="evenodd" d="M16.978 15.4234C16.978 15.8543 16.8069 16.2675 16.5022 16.5722C16.1975 16.8769 15.7843 17.048 15.3534 17.048C14.9225 17.048 14.5093 16.8769 14.2046 16.5722C13.9 16.2675 13.7288 15.8543 13.7288 15.4234C13.7288 14.9926 13.9 14.5793 14.2046 14.2747C14.5093 13.97 14.9225 13.7988 15.3534 13.7988C15.7843 13.7988 16.1975 13.97 16.5022 14.2747C16.8069 14.5793 16.978 14.9926 16.978 15.4234Z" fill="url(#paint4_linear_14_2315)"/>
<defs>
<linearGradient id="paint0_linear_14_2315" x1="22.7569" y1="4.8724" x2="15.4498" y2="16.2479" gradientUnits="userSpaceOnUse">
<stop stop-color="#FF8860"/>
<stop offset="1" stop-color="#FF3B5B"/>
</linearGradient>
<linearGradient id="paint1_linear_14_2315" x1="12.1911" y1="7.3125" x2="12.1911" y2="2.4375" gradientUnits="userSpaceOnUse">
<stop stop-color="#51E1A3"/>
<stop offset="1" stop-color="#99FED4"/>
</linearGradient>
<linearGradient id="paint2_linear_14_2315" x1="5.68977" y1="23.5536" x2="18.6837" y2="8.92453" gradientUnits="userSpaceOnUse">
<stop stop-color="#FFAB21"/>
<stop offset="1" stop-color="#FBDE30"/>
</linearGradient>
<linearGradient id="paint3_linear_14_2315" x1="19.5" y1="12.1875" x2="13.8125" y2="19.5" gradientUnits="userSpaceOnUse">
<stop stop-color="#FFF3E0"/>
<stop offset="1" stop-color="#FFB742"/>
</linearGradient>
<linearGradient id="paint4_linear_14_2315" x1="15.3534" y1="17.048" x2="16.1657" y2="13.7988" gradientUnits="userSpaceOnUse">
<stop stop-color="#FF3B5B"/>
<stop offset="1" stop-color="#FF8860"/>
</linearGradient>
</defs>
</svg>
