<svg width="48" height="48" viewBox="0 0 48 48" fill="none" xmlns="http://www.w3.org/2000/svg">
<rect width="48" height="48" rx="24" fill="#414141"/>
<path d="M34.6047 11.3076H38.9432L29.9166 20.4354C28.356 22.0207 26.2245 22.9134 24 22.9134C21.7755 22.9134 19.644 22.0207 18.0834 20.4354L9.05502 11.3076H13.3935L20.2527 18.2431C21.241 19.2473 22.591 19.8128 24 19.8128C25.409 19.8128 26.759 19.2473 27.7473 18.2431L34.6047 11.3076Z" fill="white"/>
<path d="M13.3385 36.6921H9L18.0834 27.5075C19.644 25.9222 21.7755 25.0295 24 25.0295C26.2245 25.0295 28.356 25.9222 29.9166 27.5075L39 36.6921H34.6615L27.7473 29.7016C26.759 28.6974 25.409 28.132 24 28.132C22.591 28.132 21.241 28.6974 20.2527 29.7016L13.3385 36.6921Z" fill="white"/>
</svg>
