<svg width="13" height="16" viewBox="0 0 13 16" fill="none" xmlns="http://www.w3.org/2000/svg">
<path fill-rule="evenodd" clip-rule="evenodd" d="M12.2891 6.29077C12.528 4.69402 11.3122 3.83564 9.64987 3.26302L10.1891 1.10002L8.87249 0.771891L8.34749 2.87789C8.00137 2.79164 7.64587 2.71027 7.29262 2.62964L7.82137 0.509766L6.50549 0.181641L5.96587 2.34389C5.67937 2.27864 5.39812 2.21414 5.12512 2.14627L5.12662 2.13952L3.31087 1.68614L2.96062 3.09239C2.96062 3.09239 3.93749 3.31627 3.91687 3.33014C4.45012 3.46327 4.54649 3.81614 4.53037 4.09589L3.91612 6.56002C3.95287 6.56939 4.00049 6.58289 4.05299 6.60389L4.00842 6.59276C3.97787 6.5851 3.94621 6.57716 3.91387 6.56939L3.05287 10.0213C2.98762 10.1833 2.82224 10.4263 2.44949 10.334C2.46262 10.3531 1.49249 10.0951 1.49249 10.0951L0.838867 11.6023L2.55224 12.0294C2.74352 12.0773 2.93251 12.1266 3.11953 12.1754L3.11968 12.1754C3.24425 12.2079 3.36795 12.2402 3.49087 12.2716L2.94599 14.4594L4.26112 14.7875L4.80074 12.623C5.15999 12.7205 5.50874 12.8105 5.84999 12.8953L5.31224 15.0496L6.62887 15.3778L7.17374 13.1941C9.41887 13.619 11.1071 13.4476 11.8177 11.417C12.3904 9.78202 11.7892 8.83889 10.608 8.22389C11.4682 8.02552 12.1162 7.45964 12.2891 6.29077ZM9.28087 10.5091C8.90758 12.0092 6.55961 11.389 5.4853 11.1053C5.38864 11.0797 5.30229 11.0569 5.22862 11.0386L5.95162 8.14027C6.04129 8.16265 6.15085 8.18723 6.27497 8.21508L6.27509 8.21511C7.38624 8.46444 9.66337 8.9754 9.28087 10.5091ZM6.49834 6.87006C7.39404 7.1091 9.3478 7.63049 9.68812 6.26714C10.0356 4.87263 8.13675 4.45226 7.20936 4.24696C7.10505 4.22387 7.01302 4.2035 6.93787 4.18477L6.28237 6.81352C6.34428 6.82895 6.41694 6.84834 6.49834 6.87006Z" fill="white"/>
</svg>
